<?xml version="1.0" standalone="no"?>
<!DOCTYPE svg PUBLIC "-//W3C//DTD SVG 1.1//EN" "http://www.w3.org/Graphics/SVG/1.1/DTD/svg11.dtd" >
<svg xmlns="http://www.w3.org/2000/svg" xmlns:xlink="http://www.w3.org/1999/xlink" version="1.1">
<metadata></metadata>
<defs>
<font id="helvetica_neueblack" horiz-adv-x="1064" >
<font-face units-per-em="2048" ascent="1638" descent="-410" />
<missing-glyph horiz-adv-x="532" />
<glyph horiz-adv-x="0" />
<glyph unicode="&#xd;" horiz-adv-x="1024" />
<glyph unicode=" "  horiz-adv-x="532" />
<glyph unicode="&#x09;" horiz-adv-x="532" />
<glyph unicode="&#xa0;" horiz-adv-x="532" />
<glyph unicode="!" horiz-adv-x="643" d="M143 973l39 -549h275l43 549v489h-357v-489zM152 0h344v324h-344v-324z" />
<glyph unicode="&#x22;" horiz-adv-x="985" d="M113 696h286v766h-286v-766zM586 696h286v766h-286v-766z" />
<glyph unicode="#" d="M20 354h150l-45 -354h225l45 354h185l-45 -354h225l45 354h180v238h-151l30 237h180v238h-151l45 354h-225l-45 -354h-183l45 354h-225l-45 -354h-180v-238h149l-28 -237h-181v-238zM426 592l29 237h184l-31 -237h-182z" />
<glyph unicode="$" d="M27 371q0 -195 101 -287t294 -113v-184h188v184q211 23 319.5 126.5t108.5 312.5q0 133 -46 212.5t-115.5 129t-149.5 77t-149.5 57t-115.5 70.5t-46 113q0 47 28.5 87t90.5 40q55 0 81.5 -46t26.5 -108v-30h356q0 211 -92 314.5t-297 123.5v119h-188v-119 q-375 -61 -375 -444q0 -125 44 -203t110.5 -126t144.5 -78t144.5 -59.5t110.5 -70.5t44 -111q0 -55 -31.5 -94t-91.5 -39q-57 0 -92 36t-35 126v39h-368v-55z" />
<glyph unicode="%" horiz-adv-x="1593" d="M35 1057q0 -106 16.5 -181t54 -122t99 -68.5t151.5 -21.5t151.5 21.5t99.5 68.5t54.5 121.5t16.5 181.5q0 106 -16.5 181t-54.5 122t-99.5 68.5t-151.5 21.5t-151.5 -21.5t-99 -68.5t-54 -122t-16.5 -181zM285 1057q0 72 3 116t10 69.5t21.5 34.5t36.5 9q23 0 37.5 -9 t21.5 -34.5t10 -70t3 -115.5q0 -70 -3 -115t-10 -70.5t-21.5 -35t-37.5 -9.5t-37 9.5t-21 35t-10 70.5t-3 115zM358 -29h226l649 1479h-225zM915 365q0 -106 16.5 -181t54.5 -122.5t99.5 -69t151.5 -21.5t151.5 21.5t99.5 69t54.5 122t16.5 181.5q0 106 -16.5 181t-54.5 122 t-99.5 68.5t-151.5 21.5t-151.5 -21.5t-99.5 -68.5t-54.5 -122t-16.5 -181zM1165 365q0 72 3 115.5t10.5 69t21.5 35t37 9.5t37 -9.5t21.5 -35t10.5 -69.5t3 -115q0 -70 -3 -115t-10.5 -70.5t-21.5 -35t-37 -9.5t-37 9.5t-21.5 35t-10.5 70.5t-3 115z" />
<glyph unicode="&#x26;" horiz-adv-x="1251" d="M6 383q0 -102 36 -180t97.5 -129t142 -77t173.5 -26q57 0 104 9.5t89 24.5t81 35.5t80 45.5l63 -86h406l-197 274q88 86 127 201t45 238h-319q-4 -47 -15.5 -91t-33.5 -81l-166 223q121 78 187.5 173t66.5 202q0 76 -30 138t-84 107.5t-131 70t-173 24.5 q-94 0 -170 -24.5t-130 -70t-84 -108t-30 -137.5q0 -84 42 -170t98 -162q-141 -76 -208 -186.5t-67 -237.5zM362 424q0 33 23 73t68 74l194 -264q-23 -18 -58.5 -33.5t-68.5 -15.5q-31 0 -58.5 12.5t-50 35t-36 53t-13.5 65.5zM449 1163q0 45 30.5 74t77.5 29t78 -29t31 -74 q0 -33 -27 -76t-94 -104q-51 66 -73.5 106.5t-22.5 73.5z" />
<glyph unicode="'" horiz-adv-x="532" d="M123 696h287v766h-287v-766z" />
<glyph unicode="(" horiz-adv-x="643" d="M61 543q0 -252 79 -481.5t212 -438.5h299q-131 217 -188 446.5t-57 473.5t57 473t188 446h-299q-133 -209 -212 -438t-79 -481z" />
<glyph unicode=")" horiz-adv-x="643" d="M-8 -377h299q133 209 212 438.5t79 481.5t-79 481t-212 438h-299q131 -217 188.5 -446.5t57.5 -472.5q0 -244 -57.5 -473.5t-188.5 -446.5z" />
<glyph unicode="*" horiz-adv-x="831" d="M-8 1081l262 -84l-156 -219l164 -119l154 222l153 -222l164 119l-155 219l262 84l-64 191l-260 -84v274h-201v-274l-260 84z" />
<glyph unicode="+" horiz-adv-x="1228" d="M96 375h375v-375h287v375h375v287h-375v374h-287v-374h-375v-287z" />
<glyph unicode="," horiz-adv-x="532" d="M94 12h131v-24q0 -82 -28.5 -123t-102.5 -49v-176q182 4 263 101t81 296v369h-344v-394z" />
<glyph unicode="-" horiz-adv-x="753" d="M57 436h639v312h-639v-312z" />
<glyph unicode="." horiz-adv-x="532" d="M94 0h344v406h-344v-406z" />
<glyph unicode="/" horiz-adv-x="681" d="M-45 -29h307l465 1520h-307z" />
<glyph unicode="0" d="M39 711q0 -219 29.5 -362.5t90 -227.5t154 -117t219.5 -33q127 0 220.5 33t154 117t90 227.5t29.5 362.5t-29.5 362.5t-90 227t-154 116.5t-220.5 33t-220 -33t-153.5 -116.5t-90 -227t-29.5 -362.5zM420 471v479q0 78 6 128t20.5 80t35 42t50.5 12q31 0 51.5 -12t35 -42 t20.5 -80t6 -128v-479q0 -78 -6 -128t-20.5 -80t-35 -42t-51.5 -12t-51 12t-34.5 42t-20.5 80t-6 128z" />
<glyph unicode="1" d="M100 987h275v-987h381v1450h-275q-18 -66 -46.5 -109t-74 -68.5t-109 -36.5t-151.5 -11v-238z" />
<glyph unicode="2" d="M39 0h954v287h-499q10 33 39.5 63.5t54.5 55.5l225 219q82 82 131 182t49 248q0 82 -19.5 153.5t-71.5 126t-142 85t-234 30.5q-147 0 -239 -35t-145.5 -100.5t-71 -154.5t-19.5 -202h357v62q0 61 9 99t24.5 58.5t34 27.5t38.5 7q45 0 71.5 -34.5t26.5 -126.5 q0 -82 -23.5 -132.5t-78.5 -105.5l-254 -258q-125 -129 -171 -266t-46 -289z" />
<glyph unicode="3" d="M39 434q0 -131 28.5 -220t88 -142.5t150.5 -77t214 -23.5q236 0 354.5 111t118.5 356q0 59 -11 111.5t-39 94.5t-71 70.5t-108 41.5v4q57 12 96 43t62.5 70.5t34 85t10.5 90.5q0 96 -21.5 170.5t-74 126t-140.5 78t-221 26.5q-223 0 -336 -107q-113 -104 -119 -331h344 q0 115 23.5 157.5t79.5 42.5q49 0 72.5 -32.5t23.5 -122.5q0 -63 -10 -103.5t-30.5 -63t-51.5 -30.5t-74 -8h-55v-238h96q37 0 62.5 -8t43 -28.5t25.5 -55.5t8 -88q0 -68 -4 -111.5t-15 -69.5t-31.5 -35t-53.5 -9q-61 0 -86 53q-12 29 -19.5 70t-7.5 102h-356z" />
<glyph unicode="4" d="M33 270h516v-270h356v270h127v275h-127v876h-413l-459 -864v-287zM319 545l238 483h4v-483h-242z" />
<glyph unicode="5" d="M39 387q0 -197 111.5 -306.5t363.5 -109.5q135 0 226 36t146.5 106.5t79 176t23.5 247.5q0 233 -93 346.5t-269 113.5q-82 0 -148.5 -28.5t-120.5 -77.5l17 244h551v286h-842l-33 -805h344q0 66 29 94.5t76 28.5q53 0 80.5 -48t27.5 -171q0 -104 -6 -165.5t-20.5 -94.5 t-34 -42t-47.5 -9q-49 0 -77 37t-28 139v49h-356v-47z" />
<glyph unicode="6" d="M39 588q0 -178 31.5 -296t95 -189.5t157 -101.5t218.5 -30q117 0 207 30t152.5 96.5t94 170t31.5 250.5q0 127 -24.5 212t-70.5 136.5t-109.5 71.5t-141.5 20q-84 0 -151.5 -30.5t-92.5 -83.5h-4v231q0 70 32 103.5t73 33.5q53 0 75 -28q25 -31 29 -107h356 q0 72 -19.5 139.5t-69.5 120t-139 83t-230 30.5q-162 0 -260.5 -47t-151.5 -136t-70.5 -219t-17.5 -298v-162zM432 446q0 139 26.5 188.5t80.5 49.5q59 0 82.5 -49t23.5 -189q0 -139 -26.5 -188t-79.5 -49q-59 0 -83 49t-24 188z" />
<glyph unicode="7" d="M51 1110h584q-90 -123 -159.5 -259t-121 -278.5t-83 -288t-46.5 -284.5h393q10 137 43 287.5t82.5 299t114 290t139.5 260.5v284h-946v-311z" />
<glyph unicode="8" d="M39 430q0 -135 33.5 -223t97 -140.5t154.5 -74t208 -21.5t209.5 21.5t154.5 74t96 140.5t34 223q0 61 -13.5 116.5t-42 99.5t-74.5 75t-112 43v4q63 16 105.5 46t67 69t33.5 85t9 93q0 86 -25.5 157.5t-81.5 123t-144.5 80t-215.5 28.5q-125 0 -214 -28.5t-145 -80 t-81.5 -123t-25.5 -157.5q0 -47 9 -93t33.5 -85t66.5 -69t106 -46v-4q-121 -16 -181.5 -108.5t-60.5 -225.5zM420 424q0 63 8 104t22.5 65.5t35 34t46.5 9.5q53 0 83 -43t30 -170q0 -129 -29.5 -172t-83.5 -43q-53 0 -82.5 43t-29.5 172zM434 1038q0 53 8.5 87t21.5 53.5 t30.5 26.5t37.5 7t38 -7t31 -26.5t21.5 -53t8.5 -87.5q0 -106 -29 -141t-70 -35q-20 0 -37.5 7.5t-30.5 26.5t-21.5 54t-8.5 88z" />
<glyph unicode="9" d="M39 903q0 -127 24.5 -212t70.5 -135t109.5 -71.5t141.5 -21.5q84 0 151.5 30.5t92.5 81.5h4v-231q0 -68 -32 -101.5t-73 -33.5q-53 0 -75 29q-25 31 -29 106h-356q0 -72 19 -139.5t70.5 -119.5t139.5 -83t229 -31q162 0 260.5 47.5t151.5 136.5t70.5 219t17.5 298v159 q0 178 -31.5 297t-94 191t-157 101.5t-219.5 29.5q-117 0 -207 -29.5t-152.5 -96.5t-94 -170t-31.5 -251zM420 975q0 139 26.5 188t79.5 49q59 0 83 -49t24 -188t-26.5 -188.5t-80.5 -49.5q-59 0 -82.5 49.5t-23.5 188.5z" />
<glyph unicode=":" horiz-adv-x="532" d="M94 0h344v406h-344v-406zM94 702h344v406h-344v-406z" />
<glyph unicode=";" horiz-adv-x="532" d="M94 12h131v-24q0 -82 -28.5 -123t-102.5 -49v-176q182 4 263 101t81 296v369h-344v-394zM94 702h344v406h-344v-406z" />
<glyph unicode="&#x3c;" horiz-adv-x="1228" d="M96 389l1037 -426v275l-693 280l693 281v274l-1037 -426v-258z" />
<glyph unicode="=" horiz-adv-x="1228" d="M96 145h1037v287h-1037v-287zM96 604h1037v287h-1037v-287z" />
<glyph unicode="&#x3e;" horiz-adv-x="1228" d="M96 -37l1037 426v258l-1037 426v-274l692 -281l-692 -280v-275z" />
<glyph unicode="?" horiz-adv-x="1024" d="M66 999h344q0 82 7 132.5t19.5 77t30.5 35.5t43 9q47 0 69.5 -36.5t22.5 -96.5q0 -37 -9 -85t-50 -95l-121 -137q-51 -59 -69.5 -132t-18.5 -190v-57h332q0 66 9 117t38 84l149 170q53 59 74.5 132.5t21.5 157.5q0 184 -105 295t-329 111q-113 0 -197.5 -25.5 t-144.5 -85.5q-57 -57 -86.5 -151t-29.5 -230zM328 0h344v324h-344v-324z" />
<glyph unicode="@" horiz-adv-x="1638" d="M59 731q0 -158 59.5 -296t163 -241.5t242 -163t295.5 -59.5q248 0 411 79t273 231h-225q-78 -57 -177.5 -89t-215.5 -32q-131 0 -242 39t-190.5 112.5t-123.5 179t-44 238.5q0 127 40 231.5t113.5 181.5t178 119t233.5 42q117 0 216 -31t172 -89.5t113 -143.5t40 -195 q0 -86 -18.5 -147.5t-46.5 -99.5t-58.5 -56.5t-57.5 -18.5q-35 0 -34 45q0 14 5 43t9 52l82 432h-189l-16 -76q-51 66 -115.5 95.5t-142.5 29.5q-94 0 -171 -39t-131 -104.5t-84 -149.5t-30 -174q0 -80 25.5 -144.5t69.5 -111.5t102.5 -72.5t122.5 -25.5q70 0 126 24.5 t91 65.5h8q6 -43 39 -66.5t80 -23.5q82 0 174 37.5t169 108.5t128 174t51 232q0 141 -62.5 256t-167 195t-241.5 123t-289 43q-158 0 -296 -59.5t-241.5 -163t-163 -241.5t-59.5 -296zM643 709q0 37 15.5 74.5t41 67.5t61.5 48.5t77 18.5q74 0 117.5 -45.5t43.5 -116.5 q0 -41 -15 -79t-43 -66.5t-65.5 -46t-84.5 -17.5q-68 0 -108 48t-40 114z" />
<glyph unicode="A" horiz-adv-x="1138" d="M-27 0h406l39 256h303l39 -256h405l-356 1462h-479zM463 543l104 620h4l105 -620h-213z" />
<glyph unicode="B" horiz-adv-x="1175" d="M102 0h576q119 0 203 31.5t136 89t76.5 137.5t24.5 174q0 57 -15.5 113.5t-48 103.5t-83.5 79t-123 38v4q61 12 104 43t71 75t41 98t13 112q0 166 -97 265t-302 99h-576v-1462zM483 274v357h107q53 0 94 -45t41 -131q0 -90 -41 -135.5t-94 -45.5h-107zM483 889v299h92 q59 0 90 -45t31 -107q0 -59 -30.5 -103t-90.5 -44h-92z" />
<glyph unicode="C" horiz-adv-x="1099" d="M47 731q0 -205 21.5 -349t79 -235.5t160 -133.5t261.5 -42q92 0 179.5 21.5t155 79t108.5 156t41 251.5v109h-369q0 -104 -5 -173t-17.5 -110t-35 -58.5t-57.5 -17.5q-43 0 -68.5 22.5t-38.5 80t-17.5 155t-4.5 244.5t4.5 244.5t17.5 155t38.5 80t68.5 22.5q55 0 80 -45 t25 -170v-82h368v92q0 106 -25.5 191.5t-81.5 145.5t-146.5 93t-219.5 33q-147 0 -247.5 -40t-162 -130t-87 -235.5t-25.5 -354.5z" />
<glyph unicode="D" horiz-adv-x="1175" d="M90 0h553q166 0 258 60.5t138 162t56.5 233.5t10.5 275t-10.5 275.5t-56.5 233.5t-138 161.5t-258 60.5h-553v-1462zM471 274v914h76q55 0 88 -15.5t50 -64.5t22.5 -139t5.5 -238q0 -147 -5.5 -237.5t-22.5 -139.5t-50 -64.5t-88 -15.5h-76z" />
<glyph unicode="E" horiz-adv-x="1024" d="M90 0h885v311h-504v291h455v299h-455v250h485v311h-866v-1462z" />
<glyph unicode="F" horiz-adv-x="985" d="M90 0h381v602h455v299h-455v250h485v311h-866v-1462z" />
<glyph unicode="G" horiz-adv-x="1138" d="M66 731q0 -180 11 -322.5t54 -238.5t127 -147.5t229 -51.5q49 0 97.5 7.5t90.5 24.5t75.5 48t52.5 78h4l8 -129h258v795h-491v-258h135q0 -96 -9.5 -155.5t-25.5 -93.5t-40 -46.5t-54 -12.5q-43 0 -68.5 22.5t-39 80t-17.5 155t-4 244.5t4 244.5t17.5 155t41 80 t74.5 22.5q66 0 88 -64q20 -55 21 -170h368q0 133 -33.5 226.5t-95 153t-146.5 86t-188 26.5q-168 0 -274.5 -50t-166.5 -146.5t-81.5 -238t-21.5 -325.5z" />
<glyph unicode="H" horiz-adv-x="1175" d="M90 0h381v602h234v-602h380v1462h-380v-536h-234v536h-381v-1462z" />
<glyph unicode="I" horiz-adv-x="532" d="M76 0h381v1462h-381v-1462z" />
<glyph unicode="J" horiz-adv-x="985" d="M2 444q0 -229 102.5 -351t341.5 -122q236 0 357 111t121 375v1005h-381v-1059q0 -104 -28 -139t-71 -35t-70.5 35t-27.5 139v72h-344v-31z" />
<glyph unicode="K" horiz-adv-x="1138" d="M76 0h381v387l80 123l223 -510h434l-414 823l369 639h-406l-282 -561h-4v561h-381v-1462z" />
<glyph unicode="L" horiz-adv-x="948" d="M90 0h850v311h-469v1151h-381v-1462z" />
<glyph unicode="M" horiz-adv-x="1552" d="M76 0h356v1090h4l203 -1090h274l203 1090h4v-1090h357v1462h-545l-154 -866h-4l-153 866h-545v-1462z" />
<glyph unicode="N" horiz-adv-x="1212" d="M90 0h356v903h5l254 -903h417v1462h-356v-901h-4l-246 901h-426v-1462z" />
<glyph unicode="O" horiz-adv-x="1138" d="M47 731q0 -205 26.5 -349t88 -235.5t162 -133.5t245.5 -42t245.5 42t162 133.5t88.5 235.5t27 349t-27 349.5t-88.5 235.5t-161.5 133t-246 42q-145 0 -245.5 -42t-162 -133t-88 -235.5t-26.5 -349.5zM440 731q0 147 4.5 244.5t17.5 155t38.5 80t68.5 22.5t69 -22.5 t39 -80t17 -154.5t4 -245q0 -147 -4 -244.5t-17 -155t-39 -80t-69 -22.5t-68.5 22.5t-38.5 80t-17.5 155t-4.5 244.5z" />
<glyph unicode="P" horiz-adv-x="1099" d="M76 0h381v557h133q233 0 356 114.5t123 340.5q0 96 -24.5 178t-77 142.5t-132 95t-188.5 34.5h-571v-1462zM457 831v357h71q147 0 148 -178q0 -92 -38 -135.5t-110 -43.5h-71z" />
<glyph unicode="Q" horiz-adv-x="1138" d="M47 731q0 -205 26.5 -349t88 -235.5t162 -133.5t245.5 -42h37q18 0 34.5 2t33 4.5t33.5 4.5l208 -226l230 199l-176 182q66 92 94.5 237.5t28.5 356.5q0 205 -27 349.5t-88.5 235.5t-161.5 133t-246 42q-145 0 -245.5 -42t-162 -133t-88 -235.5t-26.5 -349.5zM440 731 q0 147 4.5 244.5t17.5 155t38.5 80t68.5 22.5t69 -22.5t39 -80t17 -154.5t4 -245q0 -147 -4 -244.5t-17 -155t-39 -80t-69 -22.5t-68.5 22.5t-38.5 80t-17.5 155t-4.5 244.5z" />
<glyph unicode="R" horiz-adv-x="1175" d="M90 0h381v586h100q35 0 58.5 -9.5t39 -33t21.5 -64.5t6 -102v-98q0 -23 1 -59t4.5 -75t10.5 -77.5t21 -67.5h406v20q-18 10 -26.5 21.5t-16.5 24.5q-14 23 -16.5 84t-2.5 118v125q0 74 -11 131.5t-39 99.5t-74 66.5t-115 30.5v4q131 20 190 110.5t59 237.5 q0 84 -21.5 155.5t-69.5 124t-124.5 81t-185.5 28.5h-596v-1462zM471 844v344h74q86 0 124 -40t38 -130q0 -78 -39 -126t-121 -48h-76z" />
<glyph unicode="S" horiz-adv-x="1099" d="M45 383q0 -113 33 -191.5t95.5 -128t153.5 -71t210 -21.5q252 0 385 108.5t133 342.5q0 133 -46 216t-116 134t-149.5 83t-149.5 62.5t-116 72.5t-46 114q0 49 28.5 89t90.5 40q55 0 81.5 -46t26.5 -112v-35h357q0 236 -111.5 343.5t-361.5 107.5q-242 0 -361 -117 t-119 -340q0 -129 44.5 -209t111 -129t144 -79.5t144 -60.5t111 -72t44.5 -113q0 -59 -32 -100.5t-91 -41.5q-55 0 -90 38t-35 132v35h-369v-51z" />
<glyph unicode="T" horiz-adv-x="946" d="M-4 1139h287v-1139h381v1139h286v323h-954v-323z" />
<glyph unicode="U" horiz-adv-x="1138" d="M74 504q0 -154 32.5 -256.5t95 -163.5t156 -87t211.5 -26q121 0 213 26t154.5 87t95.5 163.5t33 256.5v958h-381v-1054q0 -106 -30.5 -142.5t-84.5 -36.5q-53 0 -83.5 36t-30.5 143v1054h-381v-958z" />
<glyph unicode="V" d="M-29 1462l316 -1462h491l316 1462h-406l-153 -1102h-5l-153 1102h-406z" />
<glyph unicode="W" horiz-adv-x="1593" d="M0 1462l250 -1462h418l127 983h4l127 -983h417l250 1462h-368l-103 -1011h-4l-149 1011h-344l-138 -1011h-4l-114 1011h-369z" />
<glyph unicode="X" horiz-adv-x="1097" d="M-25 0h426l146 440h4l145 -440h426l-342 741l318 721h-426l-121 -424h-4l-121 424h-426l322 -721z" />
<glyph unicode="Y" d="M-31 1462l373 -887v-575h381v575l373 887h-418l-143 -510h-5l-143 510h-418z" />
<glyph unicode="Z" horiz-adv-x="985" d="M41 0h903v311h-467l467 877v274h-872v-311h428l-459 -877v-274z" />
<glyph unicode="[" horiz-adv-x="643" d="M90 -377h553v258h-209v1323h209v258h-553v-1839z" />
<glyph unicode="\" horiz-adv-x="681" d="M-45 1491l465 -1520h307l-465 1520h-307z" />
<glyph unicode="]" horiz-adv-x="643" d="M0 -119v-258h553v1839h-553v-258h209v-1323h-209z" />
<glyph unicode="^" horiz-adv-x="1228" d="M96 674h287l231 489l232 -489h287l-359 747h-319z" />
<glyph unicode="_" horiz-adv-x="1024" d="M0 -154v-102h1024v102h-1024z" />
<glyph unicode="`" horiz-adv-x="532" d="M2 1509l197 -299h237l-90 299h-344z" />
<glyph unicode="a" horiz-adv-x="1024" d="M29 297q0 -72 17 -131.5t54 -102.5t95.5 -67.5t140.5 -24.5q84 0 151.5 40t98.5 114h4q4 -35 8 -65.5t14 -59.5h357q-23 43 -29 102.5t-6 137.5v540q0 109 -32 177.5t-90 108.5t-139 55.5t-177 15.5q-63 0 -137 -13.5t-137.5 -53.5t-106.5 -113.5t-43 -192.5h319 q2 88 26.5 117.5t78.5 29.5q94 0 94 -102q0 -51 -24.5 -79t-84.5 -42l-145 -35q-88 -20 -147.5 -50t-94.5 -72t-50 -99t-15 -135zM385 340q0 55 16.5 89t59.5 54q41 18 74.5 23.5t50.5 28.5h4v-134q0 -92 -27 -137t-88 -45q-41 0 -65.5 33t-24.5 88z" />
<glyph unicode="b" d="M80 0h356v152h4q35 -92 94.5 -136.5t157.5 -44.5q92 0 155.5 37t102.5 113t56.5 189.5t17.5 267.5q0 160 -23.5 267t-66.5 171.5t-106.5 92.5t-143.5 28q-78 0 -140.5 -34t-90.5 -120h-4v479h-369v-1462zM449 553q0 90 4 149.5t15 95.5t31.5 50t51.5 14q33 0 53.5 -14 t31.5 -50t15 -95.5t4 -149.5q0 -88 -4 -147.5t-15 -95.5t-31.5 -50t-53.5 -14q-31 0 -51.5 14t-31.5 50t-15 95.5t-4 147.5z" />
<glyph unicode="c" horiz-adv-x="985" d="M41 535q0 -178 35 -289t98.5 -172.5t150.5 -82t193 -20.5q236 0 340 117q53 59 75.5 151.5t22.5 223.5h-331v-72q0 -104 -28 -143t-79 -39q-31 0 -52.5 15.5t-33.5 54t-17 105.5t-5 169t5 168.5t17 106.5t33.5 55.5t52.5 15.5q59 0 82 -47q12 -27 18.5 -69t6.5 -109h331 q0 104 -19 189t-67.5 145.5t-129.5 94.5t-203 34q-104 0 -194.5 -20.5t-157 -84t-105.5 -182.5t-39 -315z" />
<glyph unicode="d" d="M41 578q0 -154 17.5 -267.5t56.5 -189.5t102.5 -113t155.5 -37q98 0 157.5 44t94.5 137h4v-152h356v1462h-369v-479h-4q-29 86 -91 120t-140 34q-76 0 -139.5 -29t-107.5 -94.5t-68.5 -172t-24.5 -263.5zM410 553q0 90 4 149.5t15 95.5t31.5 50t53.5 14q31 0 51.5 -14 t31.5 -50t15 -95.5t4 -149.5q0 -88 -4 -147.5t-15 -95.5t-31.5 -50t-51.5 -14q-33 0 -53.5 14t-31.5 50t-15 95.5t-4 147.5z" />
<glyph unicode="e" horiz-adv-x="985" d="M41 553q0 -158 23.5 -268.5t79 -180t145.5 -101.5t223 -32q229 0 329.5 107.5t104.5 310.5h-332q0 -113 -27.5 -152.5t-76.5 -39.5q-39 0 -69.5 30.5t-30.5 118.5v146h546v112q0 152 -27.5 253t-84 163.5t-139 89.5t-193.5 27q-125 0 -214 -32t-146.5 -101.5t-84 -180 t-26.5 -270.5zM410 692v49q0 88 21.5 129t78.5 41q59 0 80.5 -41t21.5 -129v-49h-202z" />
<glyph unicode="f" horiz-adv-x="645" d="M0 860h127v-860h369v860h149v248h-149v68q0 41 26.5 59t61.5 18t61 -6v232q-43 6 -89 9t-87 3q-96 0 -161.5 -16.5t-105.5 -52.5t-57.5 -93t-17.5 -141v-80h-127v-248z" />
<glyph unicode="g" d="M51 578q0 -172 30 -280t77 -167t104 -79.5t113 -20.5q78 0 146.5 35.5t103.5 130.5h4v-211q0 -47 -10.5 -74t-25.5 -41t-35.5 -18.5t-41.5 -4.5q-43 0 -67.5 23t-24.5 63h-332q2 -94 36 -154.5t92.5 -95t136 -48t165.5 -13.5q98 0 182 19.5t146.5 64.5t98.5 121t36 190 v1090h-344v-154h-4q-31 100 -98.5 141.5t-145.5 41.5q-80 0 -143.5 -28t-107.5 -92.5t-67.5 -172t-23.5 -266.5zM420 584q0 86 7 140t20.5 85t33 42t45.5 11q25 0 44.5 -11t32.5 -42t19.5 -85t6.5 -140q0 -88 -6.5 -142.5t-19.5 -85t-32.5 -41t-44.5 -10.5q-27 0 -46 10.5 t-32.5 41t-20.5 85t-7 142.5z" />
<glyph unicode="h" d="M74 0h368v731q0 70 20.5 100.5t69.5 30.5t70 -30.5t21 -100.5v-731h368v836q0 86 -23.5 144t-63.5 93t-92 49.5t-110 14.5q-68 0 -138 -32t-118 -120h-4v477h-368v-1462z" />
<glyph unicode="i" horiz-adv-x="528" d="M80 0h369v1108h-369v-1108zM80 1188h369v274h-369v-274z" />
<glyph unicode="j" horiz-adv-x="528" d="M-59 -102v-248q41 -4 83 -7t82 -3q72 0 134.5 9t108.5 38.5t73 87t27 153.5v1180h-369v-1133q0 -49 -35 -63t-104 -14zM80 1188h369v274h-369v-274z" />
<glyph unicode="k" horiz-adv-x="1024" d="M63 0h369v285l62 96l186 -381h393l-346 651l307 457h-393l-205 -383h-4v737h-369v-1462z" />
<glyph unicode="l" horiz-adv-x="528" d="M80 0h369v1462h-369v-1462z" />
<glyph unicode="m" horiz-adv-x="1593" d="M63 0h369v731q0 70 20.5 100.5t69.5 30.5t69.5 -30.5t20.5 -100.5v-731h369v731q0 70 20.5 100.5t69.5 30.5t69.5 -30.5t20.5 -100.5v-731h369v836q0 90 -22.5 147t-61.5 92t-91 48.5t-114 13.5q-86 0 -160.5 -38t-117.5 -132q-35 86 -95.5 128t-175.5 42 q-96 0 -164.5 -41t-103.5 -123h-4v135h-357v-1108z" />
<glyph unicode="n" d="M74 0h368v731q0 70 20.5 100.5t69.5 30.5t70 -30.5t21 -100.5v-731h368v836q0 90 -22.5 147t-61.5 92t-91 48.5t-114 13.5q-96 0 -164.5 -41t-103.5 -123h-4v135h-356v-1108z" />
<glyph unicode="o" horiz-adv-x="1024" d="M41 555q0 -119 13.5 -225.5t60.5 -186.5t141 -126t256 -46q156 0 249 50.5t142 132.5t64.5 186t15.5 213q0 121 -13.5 226.5t-60.5 185t-141 126t-256 46.5q-156 0 -249 -50.5t-142 -132.5t-64.5 -186t-15.5 -213zM410 553q0 104 4 172t16 106.5t31.5 53t50.5 14.5 t51.5 -14.5t31.5 -53t15 -106.5t4 -172t-4 -171t-15 -105.5t-31.5 -53t-51.5 -14.5t-50.5 14.5t-31.5 53t-16 105.5t-4 171z" />
<glyph unicode="p" d="M80 -360h369v485h4q29 -86 91 -120t140 -34t140.5 28t106.5 93.5t68.5 172t24.5 265.5q0 154 -17.5 267.5t-56.5 189.5t-102.5 113t-155.5 37q-186 0 -252 -181h-4v152h-356v-1468zM449 555q0 90 4 148.5t15 94.5t31.5 50t51.5 14q33 0 53.5 -14t31.5 -50t15 -94.5 t4 -148.5t-4 -149.5t-15 -95.5t-31.5 -50t-53.5 -14q-31 0 -51.5 14t-31.5 50t-15 95.5t-4 149.5z" />
<glyph unicode="q" d="M41 530q0 -160 23.5 -267t66.5 -171.5t106.5 -92.5t143.5 -28q78 0 140.5 34t90.5 120h4v-485h369v1468h-356v-152h-4q-35 92 -94.5 136.5t-157.5 44.5q-92 0 -155.5 -37t-102.5 -113t-56.5 -189.5t-17.5 -267.5zM410 555q0 90 4 148.5t15 94.5t31.5 50t53.5 14 q31 0 51.5 -14t31.5 -50t15 -94.5t4 -148.5t-4 -149.5t-15 -95.5t-31.5 -50t-51.5 -14q-33 0 -53.5 14t-31.5 50t-15 95.5t-4 149.5z" />
<glyph unicode="r" horiz-adv-x="720" d="M63 0h369v604q0 111 54.5 154t152.5 43q23 0 45.5 -2t46.5 -6v344h-59q-82 0 -149.5 -52.5t-98.5 -152.5h-4v176h-357v-1108z" />
<glyph unicode="s" horiz-adv-x="948" d="M35 344q0 -180 101.5 -276.5t332.5 -96.5q104 0 187 28t139.5 77t87 117.5t30.5 148.5q0 106 -39.5 171t-99 102.5t-128 58t-128 39t-99.5 43t-40 69.5q0 41 26.5 63.5t67.5 22.5q47 0 72.5 -25.5t25.5 -97.5h320q0 348 -416 349q-113 0 -195.5 -27t-137 -74t-81 -109.5 t-26.5 -135.5q0 -104 40 -169t99 -104t128 -61.5t128 -43t99 -47t40 -75.5q0 -45 -31.5 -69.5t-74.5 -24.5q-49 0 -78 39q-14 18 -20.5 46.5t-6.5 61.5h-323z" />
<glyph unicode="t" horiz-adv-x="645" d="M4 860h123v-590q0 -92 17.5 -147t55.5 -86t97 -40t143 -9q47 0 98.5 3t102.5 9v246h-57q-45 0 -66.5 19.5t-21.5 66.5v528h145v248h-145v326h-369v-326h-123v-248z" />
<glyph unicode="u" d="M74 272q0 -88 22.5 -146t61.5 -93t91 -48.5t113 -13.5q96 0 165 41t104 123h4v-135h356v1108h-368v-731q0 -70 -20.5 -100.5t-70.5 -30.5q-49 0 -69.5 30.5t-20.5 100.5v731h-368v-836z" />
<glyph unicode="v" horiz-adv-x="948" d="M-12 1108l268 -1108h434l271 1108h-381l-103 -797h-4l-104 797h-381z" />
<glyph unicode="w" horiz-adv-x="1515" d="M0 1108l225 -1108h418l113 784h4l112 -784h418l226 1108h-357l-92 -797h-4l-109 797h-393l-108 -797h-4l-93 797h-356z" />
<glyph unicode="x" horiz-adv-x="985" d="M-8 0h368l136 334l129 -334h368l-293 571l279 537h-369l-127 -297l-110 297h-369l281 -537z" />
<glyph unicode="y" horiz-adv-x="948" d="M-2 1108l293 -1045q6 -23 11 -46t5 -35q0 -8 -6 -22.5t-20.5 -28t-38 -23.5t-58.5 -10q-20 0 -40.5 2t-41.5 6v-258q47 -4 97.5 -6t109.5 -2q74 0 131.5 14t101.5 51t75.5 99.5t56.5 158.5l297 1145h-369l-106 -748h-4l-113 748h-381z" />
<glyph unicode="z" horiz-adv-x="909" d="M29 0h852v287h-424l413 547v274h-823v-287h379l-397 -534v-287z" />
<glyph unicode="{" horiz-adv-x="681" d="M-10 406q18 0 41.5 -4.5t45 -18.5t37 -41t15.5 -74v-364q0 -141 79 -211t228 -70h246v258h-115q-33 0 -51 12.5t-27.5 31t-12.5 41t-3 42.5v326q0 70 -24.5 109.5t-59.5 61t-72.5 28t-64.5 8.5v4q27 2 64.5 10t72.5 28.5t59.5 56.5t24.5 93v344q0 20 3 43t12.5 41.5 t28 30.5t50.5 12h115v258h-246q-150 0 -228.5 -69.5t-78.5 -210.5v-383q0 -39 -15.5 -62.5t-37 -36t-45 -16.5t-41.5 -4v-274z" />
<glyph unicode="|" horiz-adv-x="454" d="M84 -29h287v1520h-287v-1520z" />
<glyph unicode="}" horiz-adv-x="681" d="M0 -119v-258h246q150 0 228.5 69.5t78.5 211.5v383q0 41 15.5 64.5t37 35.5t45 15.5t41.5 3.5v274q-18 0 -41.5 4t-45 18.5t-37 42t-15.5 72.5v365q0 141 -79 210.5t-228 69.5h-246v-258h115q33 0 51 -12t27.5 -30.5t12.5 -41t3 -43.5v-325q0 -70 24.5 -110t59.5 -61.5 t72.5 -27.5t64.5 -8v-4q-27 -2 -64.5 -10.5t-72.5 -29t-59.5 -56t-24.5 -93.5v-344q0 -20 -3 -42.5t-12.5 -41t-28 -31t-50.5 -12.5h-115z" />
<glyph unicode="~" horiz-adv-x="1228" d="M141 555l74 -256q29 72 74 108.5t98 36.5q72 0 126 -21.5t105.5 -48t101.5 -48t111 -21.5q76 0 139.5 46t116.5 130l-73 256q-43 -68 -86 -106.5t-94 -38.5q-41 0 -93.5 21.5t-109 48t-116.5 48t-118 21.5q-92 0 -156.5 -49t-99.5 -127z" />
<glyph unicode="&#xa1;" horiz-adv-x="643" d="M143 141v-489h357v489l-43 549h-275zM147 791h345v323h-345v-323z" />
<glyph unicode="&#xa2;" d="M76 528q0 -137 22.5 -237.5t69.5 -169.5q92 -131 301 -150v-180h164v180q174 25 258 117q53 59 75.5 151.5t22.5 223.5h-332v-72q0 -104 -27.5 -143t-78.5 -39q-31 0 -51.5 15.5t-32.5 54t-17.5 105.5t-5.5 169t5.5 168.5t17.5 106.5t32.5 55.5t51.5 15.5q59 0 82 -47 q12 -27 18 -69t6 -109h332q0 92 -13 173t-52 141.5t-109 99t-182 49.5v155h-164v-155q-94 -12 -167 -47t-123 -105t-76.5 -181.5t-26.5 -275.5z" />
<glyph unicode="&#xa3;" d="M25 199l84 -215q53 27 108 44t113 17q47 0 95 -11t95 -25.5t95.5 -26t95.5 -11.5q88 0 171 22.5t158 76.5l-102 229q-78 -41 -126 -60.5t-87 -19.5q-29 0 -55.5 8.5t-54 17.5t-55.5 17t-56 8q-29 0 -68 -14l-4 4q88 66 139.5 140.5t51.5 140.5q0 14 -3.5 28.5t-7.5 32.5 h283v213h-350q-47 86 -74 155.5t-27 123.5q0 47 29 82.5t86 35.5q47 0 82 -33.5t35 -113.5v-33h332q-2 98 -27 176t-81 132.5t-147 82t-225 27.5q-98 0 -181 -23.5t-143.5 -70.5t-94 -118t-33.5 -165q0 -66 24.5 -133.5t63.5 -124.5h-139v-213h219l7 -31.5t3 -27.5 q0 -51 -18.5 -99.5t-50 -92.5t-72.5 -83t-88 -69z" />
<glyph unicode="&#xa4;" d="M18 356l148 -157l106 110q115 -80 260 -80t261 80l106 -110l148 157l-107 105q74 115 74 250q0 72 -21.5 136t-56.5 122l111 108l-148 146l-113 -105q-115 74 -254 74t-253 -74l-113 105l-148 -146l111 -108q-35 -57 -56.5 -122t-21.5 -136q0 -135 74 -250zM326 711 q0 111 54 167t152 56t152.5 -56.5t54.5 -166.5q0 -111 -54 -167.5t-153 -56.5q-98 0 -152 56.5t-54 167.5z" />
<glyph unicode="&#xa5;" d="M-10 1421l256 -614h-154v-213h244l12 -35v-94h-256v-213h256v-252h369v252h256v213h-256v94l12 35h244v213h-154l256 614h-393l-147 -532h-5l-147 532h-393z" />
<glyph unicode="&#xa6;" horiz-adv-x="454" d="M84 -29h287v594h-287v-594zM84 897h287v594h-287v-594z" />
<glyph unicode="&#xa7;" d="M41 604q0 -113 43 -181.5t107.5 -111.5t139.5 -67.5t139.5 -50t107.5 -60.5t43 -96q0 -47 -23 -81t-76 -34q-49 0 -75.5 38t-26.5 130h-344v-33q2 -190 116.5 -281t331.5 -91q98 0 183.5 19.5t148 63.5t98 113.5t35.5 169.5q0 78 -23.5 151.5t-88.5 125.5 q78 59 112.5 134t34.5 161q0 113 -43 183.5t-107.5 115.5t-139.5 71.5t-139.5 50t-107.5 51t-43 74.5q0 37 28 60.5t69 23.5q43 0 75.5 -23.5t32.5 -99.5h320v39q0 164 -109.5 243t-324.5 79q-227 0 -337 -96.5t-110 -257.5q0 -63 31 -130t92 -108q-74 -39 -122 -123 t-48 -172zM328 647q0 23 20.5 58.5t73.5 80.5q35 -25 89 -43t104.5 -39.5t86 -50t35.5 -73.5q0 -35 -15 -66t-73 -72l-241 111q-47 23 -63.5 44t-16.5 50z" />
<glyph unicode="&#xa8;" horiz-adv-x="532" d="M-57 1204h274v287h-274v-287zM315 1204h275v287h-275v-287z" />
<glyph unicode="&#xa9;" horiz-adv-x="1638" d="M59 731q0 -158 59.5 -296t163 -241.5t242 -163t295.5 -59.5q158 0 296 59.5t241.5 163t163 241.5t59.5 296t-59.5 296t-163 241.5t-241.5 163t-296 59.5t-296 -59.5t-241.5 -163t-163 -241.5t-59.5 -296zM322 731q0 262 131 398.5t366 136.5q236 0 367 -136.5t131 -398.5 t-131 -398t-367 -136t-366.5 136t-130.5 398zM436 721q0 -90 30 -168t85 -134.5t132 -89t169 -32.5q66 0 125 20.5t107.5 60.5t81 98.5t44.5 135.5h-225q-8 -66 -46 -96.5t-93 -30.5q-92 0 -144.5 68t-52.5 180q0 111 49.5 176.5t141.5 65.5q55 0 93 -30t52 -89h213 q-25 154 -123 230.5t-235 76.5q-92 0 -166 -33.5t-127 -94t-82 -141.5t-29 -173z" />
<glyph unicode="&#xaa;" horiz-adv-x="720" d="M20 958q0 -86 50.5 -140t181.5 -54q55 0 98 24q43 23 62 68h4q4 -23 6 -41t10 -37h268q-14 29 -18 64t-4 82v325q0 57 -14.5 97t-50 66t-98 38t-161.5 12q-61 0 -116.5 -8t-97.5 -32.5t-66.5 -68.5t-24.5 -116h238q2 41 17 57.5t50 16.5q31 0 46.5 -13.5t15.5 -31.5 q0 -31 -15.5 -46.5t-54.5 -25.5l-94 -23q-68 -16 -113 -33.5t-71.5 -42t-37 -57t-10.5 -80.5zM283 985q0 33 10 53.5t39 32.5q27 10 48 13t32 20h4v-66q0 -55 -16.5 -82.5t-57.5 -27.5q-29 0 -44 17.5t-15 39.5z" />
<glyph unicode="&#xab;" horiz-adv-x="909" d="M100 367l320 -213v323l-172 115l172 115v323l-320 -213v-450zM489 367l320 -213v323l-172 115l172 115v323l-320 -213v-450z" />
<glyph unicode="&#xac;" horiz-adv-x="1228" d="M96 604h750v-381h287v668h-1037v-287z" />
<glyph unicode="&#xad;" horiz-adv-x="753" d="M57 436h639v312h-639v-312z" />
<glyph unicode="&#xae;" horiz-adv-x="1638" d="M59 731q0 -158 59.5 -296t163 -241.5t242 -163t295.5 -59.5q158 0 296 59.5t241.5 163t163 241.5t59.5 296t-59.5 296t-163 241.5t-241.5 163t-296 59.5t-296 -59.5t-241.5 -163t-163 -241.5t-59.5 -296zM322 731q0 262 131 398.5t366 136.5q236 0 367 -136.5t131 -398.5 t-131 -398t-367 -136t-366.5 136t-130.5 398zM530 371h189v293h65l164 -293h209l-174 313q25 4 51.5 15.5t49 36t38 63.5t15.5 94q0 145 -93.5 198.5t-257.5 53.5h-256v-774zM719 815v178h100q55 0 86 -21.5t31 -64.5q0 -47 -31 -69.5t-86 -22.5h-100z" />
<glyph unicode="&#xaf;" horiz-adv-x="532" d="M-57 1262h647v200h-647v-200z" />
<glyph unicode="&#xb0;" horiz-adv-x="819" d="M82 1122q0 -68 25.5 -127t70.5 -104t104.5 -70.5t127.5 -25.5t127 25.5t104 70.5t70.5 104.5t25.5 126.5q0 68 -25.5 127.5t-70.5 104.5t-104.5 70.5t-126.5 25.5q-68 0 -127.5 -25.5t-104.5 -70.5t-70.5 -104.5t-25.5 -127.5zM270 1122q0 59 40 99.5t100 40.5 q59 0 99 -40t40 -100q0 -59 -40 -99t-99 -40t-99.5 40t-40.5 99z" />
<glyph unicode="&#xb1;" horiz-adv-x="1228" d="M96 0h1037v287h-1037v-287zM96 569h375v-180h287v180h375v287h-375v180h-287v-180h-375v-287z" />
<glyph unicode="&#xb2;" horiz-adv-x="757" d="M39 1139h262v28q0 76 21.5 97.5t44.5 21.5q29 0 47 -18.5t18 -59.5q0 -49 -15.5 -78.5t-51.5 -64.5l-164 -156q-82 -78 -112 -160.5t-30 -175.5h660v189h-326q8 20 26.5 38.5l35.5 35.5l145 133q53 49 86 107.5t33 133.5q0 49 -13.5 93.5t-51.5 77t-104.5 51t-174.5 18.5 q-117 0 -180.5 -20.5t-98.5 -61.5q-35 -39 -46 -94t-11 -135z" />
<glyph unicode="&#xb3;" horiz-adv-x="757" d="M33 834q0 -78 20.5 -130.5t61.5 -85t106.5 -46t157.5 -13.5q182 0 264 66.5t82 214.5q0 72 -33 124t-121 64v4q74 16 102.5 69.5t28.5 106.5q0 59 -14 104.5t-51 76t-100.5 46t-163.5 15.5q-92 0 -149.5 -14.5t-96.5 -46.5q-78 -66 -78 -197h250q0 94 68 94q61 0 61 -74 q0 -72 -25.5 -94t-80.5 -22h-37v-152h63q47 0 68.5 -21.5t21.5 -86.5q0 -66 -12 -89.5t-55 -23.5q-37 0 -56 33q-10 16 -15 38.5t-5 39.5h-262z" />
<glyph unicode="&#xb4;" horiz-adv-x="532" d="M117 1210h237l197 299h-344z" />
<glyph unicode="&#xb5;" d="M74 -360h368v337q12 -6 31 -6q47 0 86 44t72 120h4v-135h356v1108h-368v-731q0 -70 -20.5 -100.5t-70.5 -30.5q-49 0 -69.5 30.5t-20.5 100.5v731h-368v-1468z" />
<glyph unicode="&#xb6;" horiz-adv-x="1363" d="M68 1063q0 -96 30.5 -169t80.5 -121t113.5 -72.5t129.5 -24.5v-963h287v1524h194v-1524h287v1749h-598q-106 0 -201.5 -16t-167 -60.5t-113.5 -122t-42 -200.5z" />
<glyph unicode="&#xb7;" horiz-adv-x="532" d="M63 561q0 -86 58.5 -144.5t144.5 -58.5t144.5 58.5t58.5 144.5t-58.5 144.5t-144.5 58.5t-144.5 -58.5t-58.5 -144.5z" />
<glyph unicode="&#xb8;" horiz-adv-x="532" d="M33 -430q47 -18 110.5 -29.5t122.5 -11.5q121 0 193.5 50t72.5 153q0 84 -57 123t-131 39q-33 0 -59 -11l67 129h-123l-104 -196l51 -43q14 6 28.5 10t31.5 4q27 0 55 -12.5t28 -53.5q0 -29 -27.5 -49t-74.5 -20q-68 0 -139 33z" />
<glyph unicode="&#xb9;" horiz-adv-x="681" d="M45 1151h178v-578h287v877h-213q-14 -39 -33.5 -64.5t-49.5 -41t-71 -22.5t-98 -7v-164z" />
<glyph unicode="&#xba;" horiz-adv-x="720" d="M20 1112q0 -94 15.5 -160.5t54.5 -108.5t104.5 -60.5t165.5 -18.5t166 18.5t105 60.5t54 108.5t15 160.5q0 96 -15 162.5t-54 107.5t-104.5 60.5t-166.5 19.5q-100 0 -165.5 -19.5t-104.5 -60.5t-54.5 -107.5t-15.5 -162.5zM295 1112q0 111 13.5 148.5t51.5 37.5 q41 0 53.5 -37.5t12.5 -148.5q0 -109 -12.5 -146.5t-53.5 -37.5q-39 0 -52 37.5t-13 146.5z" />
<glyph unicode="&#xbb;" horiz-adv-x="909" d="M100 154l320 213v450l-320 213v-323l172 -115l-172 -115v-323zM489 154l320 213v450l-320 213v-323l173 -115l-173 -115v-323z" />
<glyph unicode="&#xbc;" horiz-adv-x="1667" d="M20 1151h179v-578h286v877h-213q-14 -39 -33.5 -64.5t-49 -41t-70.5 -22.5t-99 -7v-164zM299 -63h225l793 1548h-225zM934 147h371v-147h249v147h82v189h-82v526h-321l-299 -526v-189zM1147 336l153 268h5v-268h-158z" />
<glyph unicode="&#xbd;" horiz-adv-x="1667" d="M20 1151h179v-578h286v877h-213q-14 -39 -33.5 -64.5t-49 -41t-70.5 -22.5t-99 -7v-164zM229 -63h226l792 1548h-225zM965 565h262v29q0 76 21.5 97.5t43.5 21.5q29 0 47.5 -18.5t18.5 -59.5q0 -49 -15.5 -79t-52.5 -64l-164 -156q-82 -78 -111.5 -161t-29.5 -175h660 v188h-326q8 20 26.5 39t34.5 35l146 133q53 49 86 107.5t33 134.5q0 49 -13.5 93t-51.5 77t-104.5 51.5t-175.5 18.5q-117 0 -180 -20.5t-98 -61.5q-35 -39 -46 -94.5t-11 -135.5z" />
<glyph unicode="&#xbe;" horiz-adv-x="1667" d="M31 834q0 -78 20.5 -130.5t61.5 -85t106.5 -46t157.5 -13.5q182 0 264 66.5t82 214.5q0 72 -33 124t-121 64v4q74 16 102.5 69.5t28.5 106.5q0 59 -14 104.5t-51 76t-100.5 46t-163.5 15.5q-92 0 -149.5 -14.5t-96.5 -46.5q-78 -66 -78 -197h250q0 94 68 94q61 0 61 -74 q0 -72 -25.5 -94t-81.5 -22h-36v-152h63q47 0 68.5 -21.5t21.5 -86.5q0 -66 -12 -89.5t-55 -23.5q-37 0 -56 33q-10 16 -15 38.5t-5 39.5h-262zM375 -63h225l793 1548h-226zM934 147h371v-147h249v147h82v189h-82v526h-321l-299 -526v-189zM1122 336l154 268h4v-268h-158z " />
<glyph unicode="&#xbf;" horiz-adv-x="1024" d="M66 29q0 -184 105 -295t329 -111q113 0 197.5 25.5t144.5 85.5q57 57 86.5 151.5t29.5 229.5h-344q0 -82 -7 -132.5t-19.5 -77t-30.5 -35.5t-43 -9q-47 0 -69.5 36.5t-22.5 96.5q0 37 9 85t50 95l121 137q51 59 69.5 132t18.5 190v57h-332q0 -66 -9 -117t-38 -84 l-149 -170q-53 -59 -74.5 -132.5t-21.5 -157.5zM352 791h344v323h-344v-323z" />
<glyph unicode="&#xc0;" horiz-adv-x="1138" d="M-27 0h406l39 256h303l39 -256h405l-356 1462h-479zM293 1863l197 -299h237l-90 299h-344zM463 543l104 620h4l105 -620h-213z" />
<glyph unicode="&#xc1;" horiz-adv-x="1138" d="M-27 0h406l39 256h303l39 -256h405l-356 1462h-479zM408 1564h237l197 299h-344zM463 543l104 620h4l105 -620h-213z" />
<glyph unicode="&#xc2;" horiz-adv-x="1138" d="M-27 0h406l39 256h303l39 -256h405l-356 1462h-479zM234 1564h250l73 164l74 -164h250l-127 299h-393zM463 543l104 620h4l105 -620h-213z" />
<glyph unicode="&#xc3;" horiz-adv-x="1138" d="M-27 0h406l39 256h303l39 -256h405l-356 1462h-479zM219 1577h176q0 27 12.5 44t35.5 17t48 -9t56 -21.5t66.5 -21.5t76.5 -9q74 0 131.5 66.5t73.5 219.5h-176q-4 -35 -18.5 -48t-36.5 -13q-23 0 -50.5 10t-60.5 21q-33 12 -66.5 21t-66.5 9q-88 0 -135 -72.5 t-66 -213.5zM463 543l104 620h4l105 -620h-213z" />
<glyph unicode="&#xc4;" horiz-adv-x="1138" d="M-27 0h406l39 256h303l39 -256h405l-356 1462h-479zM234 1558h274v287h-274v-287zM463 543l104 620h4l105 -620h-213zM606 1558h275v287h-275v-287z" />
<glyph unicode="&#xc5;" horiz-adv-x="1138" d="M-27 0h406l39 256h303l39 -256h405l-356 1462h-479zM342 1764q0 -47 18.5 -88t49 -72t71.5 -49.5t88 -18.5t88 18.5t72 49.5t49.5 72t18.5 88t-18.5 88t-49.5 71.5t-72 49t-88 18.5t-88 -18.5t-71.5 -49t-49 -71.5t-18.5 -88zM463 543l104 620h4l105 -620h-213zM477 1764 q0 39 26.5 65.5t65.5 26.5t65.5 -26.5t26.5 -65.5t-26.5 -65.5t-65.5 -26.5t-65.5 26.5t-26.5 65.5z" />
<glyph unicode="&#xc6;" horiz-adv-x="1593" d="M-27 0h406l74 244h295v-244h813v311h-457v291h401v299h-401v250h434v311h-1012zM541 543l202 661h5v-661h-207z" />
<glyph unicode="&#xc7;" horiz-adv-x="1099" d="M47 731q0 -190 18.5 -328.5t67.5 -229.5t136 -139t225 -59l-84 -159l51 -43q14 6 28.5 10t30.5 4q27 0 55.5 -12.5t28.5 -53.5q0 -29 -27.5 -49t-74.5 -20q-68 0 -140 33l-45 -115q47 -18 111 -29.5t123 -11.5q121 0 193.5 50t72.5 153q0 84 -57.5 123t-130.5 39 q-33 0 -60 -11l47 88q84 6 163 32t139.5 84t97.5 153.5t37 238.5v109h-369q0 -104 -5 -173t-17.5 -110t-35 -58.5t-57.5 -17.5q-43 0 -68.5 22.5t-38.5 80t-17.5 155t-4.5 244.5t4.5 244.5t17.5 155t38.5 80t68.5 22.5q55 0 80 -45t25 -170v-82h368v92q0 106 -25.5 191.5 t-81.5 145.5t-146.5 93t-219.5 33q-147 0 -247.5 -40t-162 -130t-87 -235.5t-25.5 -354.5z" />
<glyph unicode="&#xc8;" horiz-adv-x="1024" d="M90 0h885v311h-504v291h455v299h-455v250h485v311h-866v-1462zM248 1863l197 -299h237l-90 299h-344z" />
<glyph unicode="&#xc9;" horiz-adv-x="1024" d="M90 0h885v311h-504v291h455v299h-455v250h485v311h-866v-1462zM363 1564h237l197 299h-344z" />
<glyph unicode="&#xca;" horiz-adv-x="1024" d="M90 0h885v311h-504v291h455v299h-455v250h485v311h-866v-1462zM189 1564h250l73 164l74 -164h250l-127 299h-393z" />
<glyph unicode="&#xcb;" horiz-adv-x="1024" d="M90 0h885v311h-504v291h455v299h-455v250h485v311h-866v-1462zM189 1558h274v287h-274v-287zM561 1558h275v287h-275v-287z" />
<glyph unicode="&#xcc;" horiz-adv-x="532" d="M-8 1863l197 -299h237l-90 299h-344zM76 0h381v1462h-381v-1462z" />
<glyph unicode="&#xcd;" horiz-adv-x="532" d="M76 0h381v1462h-381v-1462zM107 1564h237l197 299h-344z" />
<glyph unicode="&#xce;" horiz-adv-x="532" d="M-67 1564h250l73 164l74 -164h250l-127 299h-393zM76 0h381v1462h-381v-1462z" />
<glyph unicode="&#xcf;" horiz-adv-x="532" d="M-67 1558h274v287h-274v-287zM76 0h381v1462h-381v-1462zM305 1558h275v287h-275v-287z" />
<glyph unicode="&#xd0;" horiz-adv-x="1175" d="M-18 631h108v-631h553q166 0 258 60.5t138 162t56.5 233.5t10.5 275t-10.5 275.5t-56.5 233.5t-138 161.5t-258 60.5h-553v-573h-108v-258zM471 274v357h107v258h-107v299h76q55 0 88 -15.5t50 -64.5t22.5 -139t5.5 -238q0 -147 -5.5 -237.5t-22.5 -139.5t-50 -64.5 t-88 -15.5h-76z" />
<glyph unicode="&#xd1;" horiz-adv-x="1212" d="M90 0h356v903h5l254 -903h417v1462h-356v-901h-4l-246 901h-426v-1462zM268 1577h176q0 27 12.5 44t35.5 17t48 -9t56 -21.5t66.5 -21.5t76.5 -9q74 0 131.5 66.5t73.5 219.5h-176q-4 -35 -18.5 -48t-36.5 -13q-23 0 -50.5 10t-60.5 21q-33 12 -66.5 21t-66.5 9 q-88 0 -135 -72.5t-66 -213.5z" />
<glyph unicode="&#xd2;" horiz-adv-x="1138" d="M47 731q0 -205 26.5 -349t88 -235.5t162 -133.5t245.5 -42t245.5 42t162 133.5t88.5 235.5t27 349t-27 349.5t-88.5 235.5t-161.5 133t-246 42q-145 0 -245.5 -42t-162 -133t-88 -235.5t-26.5 -349.5zM305 1863l197 -299h237l-90 299h-344zM440 731q0 147 4.5 244.5 t17.5 155t38.5 80t68.5 22.5t69 -22.5t39 -80t17 -154.5t4 -245q0 -147 -4 -244.5t-17 -155t-39 -80t-69 -22.5t-68.5 22.5t-38.5 80t-17.5 155t-4.5 244.5z" />
<glyph unicode="&#xd3;" horiz-adv-x="1138" d="M47 731q0 -205 26.5 -349t88 -235.5t162 -133.5t245.5 -42t245.5 42t162 133.5t88.5 235.5t27 349t-27 349.5t-88.5 235.5t-161.5 133t-246 42q-145 0 -245.5 -42t-162 -133t-88 -235.5t-26.5 -349.5zM420 1564h237l197 299h-344zM440 731q0 147 4.5 244.5t17.5 155 t38.5 80t68.5 22.5t69 -22.5t39 -80t17 -154.5t4 -245q0 -147 -4 -244.5t-17 -155t-39 -80t-69 -22.5t-68.5 22.5t-38.5 80t-17.5 155t-4.5 244.5z" />
<glyph unicode="&#xd4;" horiz-adv-x="1138" d="M47 731q0 -205 26.5 -349t88 -235.5t162 -133.5t245.5 -42t245.5 42t162 133.5t88.5 235.5t27 349t-27 349.5t-88.5 235.5t-161.5 133t-246 42q-145 0 -245.5 -42t-162 -133t-88 -235.5t-26.5 -349.5zM246 1564h250l73 164l74 -164h250l-127 299h-393zM440 731 q0 147 4.5 244.5t17.5 155t38.5 80t68.5 22.5t69 -22.5t39 -80t17 -154.5t4 -245q0 -147 -4 -244.5t-17 -155t-39 -80t-69 -22.5t-68.5 22.5t-38.5 80t-17.5 155t-4.5 244.5z" />
<glyph unicode="&#xd5;" horiz-adv-x="1138" d="M47 731q0 -205 26.5 -349t88 -235.5t162 -133.5t245.5 -42t245.5 42t162 133.5t88.5 235.5t27 349t-27 349.5t-88.5 235.5t-161.5 133t-246 42q-145 0 -245.5 -42t-162 -133t-88 -235.5t-26.5 -349.5zM231 1577h176q0 27 12.5 44t35.5 17t48 -9t56 -21.5t66.5 -21.5 t76.5 -9q74 0 131.5 66.5t73.5 219.5h-176q-4 -35 -18.5 -48t-36.5 -13q-23 0 -50.5 10t-60.5 21q-33 12 -66.5 21t-66.5 9q-88 0 -135 -72.5t-66 -213.5zM440 731q0 147 4.5 244.5t17.5 155t38.5 80t68.5 22.5t69 -22.5t39 -80t17 -154.5t4 -245q0 -147 -4 -244.5t-17 -155 t-39 -80t-69 -22.5t-68.5 22.5t-38.5 80t-17.5 155t-4.5 244.5z" />
<glyph unicode="&#xd6;" horiz-adv-x="1138" d="M47 731q0 -205 26.5 -349t88 -235.5t162 -133.5t245.5 -42t245.5 42t162 133.5t88.5 235.5t27 349t-27 349.5t-88.5 235.5t-161.5 133t-246 42q-145 0 -245.5 -42t-162 -133t-88 -235.5t-26.5 -349.5zM246 1558h274v287h-274v-287zM440 731q0 147 4.5 244.5t17.5 155 t38.5 80t68.5 22.5t69 -22.5t39 -80t17 -154.5t4 -245q0 -147 -4 -244.5t-17 -155t-39 -80t-69 -22.5t-68.5 22.5t-38.5 80t-17.5 155t-4.5 244.5zM618 1558h275v287h-275v-287z" />
<glyph unicode="&#xd7;" horiz-adv-x="1228" d="M119 225l203 -202l292 292l293 -292l203 202l-293 293l293 293l-203 203l-293 -293l-292 293l-203 -203l293 -293z" />
<glyph unicode="&#xd8;" horiz-adv-x="1138" d="M47 731q0 -256 42 -416.5t144 -242.5l-55 -140l131 -51l47 119q92 -29 213 -29q145 0 245.5 42t162 133.5t88.5 235.5t27 349q0 258 -42 419t-143 245l54 135l-132 51l-47 -119q-92 29 -213 29q-145 0 -245.5 -42t-162 -133t-88 -235.5t-26.5 -349.5zM440 600v131 q0 147 4.5 244.5t17.5 155t38.5 80t68.5 22.5q35 0 58.5 -15.5t38.5 -52.5l-222 -565h-4zM473 299l221 563h4v-131q0 -147 -4 -244.5t-17 -155t-39 -80t-69 -22.5q-35 0 -58.5 15.5t-37.5 54.5z" />
<glyph unicode="&#xd9;" horiz-adv-x="1138" d="M74 504q0 -154 32.5 -256.5t95 -163.5t156 -87t211.5 -26q121 0 213 26t154.5 87t95.5 163.5t33 256.5v958h-381v-1054q0 -106 -30.5 -142.5t-84.5 -36.5q-53 0 -83.5 36t-30.5 143v1054h-381v-958zM293 1863l197 -299h237l-90 299h-344z" />
<glyph unicode="&#xda;" horiz-adv-x="1138" d="M74 504q0 -154 32.5 -256.5t95 -163.5t156 -87t211.5 -26q121 0 213 26t154.5 87t95.5 163.5t33 256.5v958h-381v-1054q0 -106 -30.5 -142.5t-84.5 -36.5q-53 0 -83.5 36t-30.5 143v1054h-381v-958zM408 1564h237l197 299h-344z" />
<glyph unicode="&#xdb;" horiz-adv-x="1138" d="M74 504q0 -154 32.5 -256.5t95 -163.5t156 -87t211.5 -26q121 0 213 26t154.5 87t95.5 163.5t33 256.5v958h-381v-1054q0 -106 -30.5 -142.5t-84.5 -36.5q-53 0 -83.5 36t-30.5 143v1054h-381v-958zM234 1564h250l73 164l74 -164h250l-127 299h-393z" />
<glyph unicode="&#xdc;" horiz-adv-x="1138" d="M74 504q0 -154 32.5 -256.5t95 -163.5t156 -87t211.5 -26q121 0 213 26t154.5 87t95.5 163.5t33 256.5v958h-381v-1054q0 -106 -30.5 -142.5t-84.5 -36.5q-53 0 -83.5 36t-30.5 143v1054h-381v-958zM234 1558h274v287h-274v-287zM606 1558h275v287h-275v-287z" />
<glyph unicode="&#xdd;" d="M-31 1462l373 -887v-575h381v575l373 887h-418l-143 -510h-5l-143 510h-418zM383 1564h237l197 299h-344z" />
<glyph unicode="&#xde;" horiz-adv-x="1099" d="M76 0h381v311h133q233 0 356 115t123 340q0 96 -24.5 178t-77 142.5t-132 95.5t-188.5 35h-190v245h-381v-1462zM457 586v356h71q147 0 148 -178q0 -92 -38 -135t-110 -43h-71z" />
<glyph unicode="&#xdf;" d="M63 0h357v1092q0 80 25.5 115.5t74.5 35.5t78 -39t29 -125q0 -70 -21.5 -108.5t-75.5 -38.5h-30v-248h41q59 0 86.5 -44t27.5 -155q0 -76 -6 -125t-19.5 -76.5t-34 -37.5t-48.5 -10q-14 0 -26.5 4t-24.5 8v-248q37 -8 72.5 -10t74.5 -2q104 0 177 25.5t118 81t65.5 144.5 t20.5 214q0 68 -9 129t-34 111t-67 85t-107 45v4q49 6 84 32t58.5 64t34.5 86t11 97q0 385 -446 385q-119 0 -210 -22.5t-152.5 -75t-92.5 -138.5t-31 -211v-1044z" />
<glyph unicode="&#xe0;" horiz-adv-x="1024" d="M29 297q0 -72 17 -131.5t54 -102.5t95.5 -67.5t140.5 -24.5q84 0 151.5 40t98.5 114h4q4 -35 8 -65.5t14 -59.5h357q-23 43 -29 102.5t-6 137.5v540q0 109 -32 177.5t-90 108.5t-139 55.5t-177 15.5q-63 0 -137 -13.5t-137.5 -53.5t-106.5 -113.5t-43 -192.5h319 q2 88 26.5 117.5t78.5 29.5q94 0 94 -102q0 -51 -24.5 -79t-84.5 -42l-145 -35q-88 -20 -147.5 -50t-94.5 -72t-50 -99t-15 -135zM248 1509l197 -299h237l-90 299h-344zM385 340q0 55 16.5 89t59.5 54q41 18 74.5 23.5t50.5 28.5h4v-134q0 -92 -27 -137t-88 -45 q-41 0 -65.5 33t-24.5 88z" />
<glyph unicode="&#xe1;" horiz-adv-x="1024" d="M29 297q0 -72 17 -131.5t54 -102.5t95.5 -67.5t140.5 -24.5q84 0 151.5 40t98.5 114h4q4 -35 8 -65.5t14 -59.5h357q-23 43 -29 102.5t-6 137.5v540q0 109 -32 177.5t-90 108.5t-139 55.5t-177 15.5q-63 0 -137 -13.5t-137.5 -53.5t-106.5 -113.5t-43 -192.5h319 q2 88 26.5 117.5t78.5 29.5q94 0 94 -102q0 -51 -24.5 -79t-84.5 -42l-145 -35q-88 -20 -147.5 -50t-94.5 -72t-50 -99t-15 -135zM363 1210h237l197 299h-344zM385 340q0 55 16.5 89t59.5 54q41 18 74.5 23.5t50.5 28.5h4v-134q0 -92 -27 -137t-88 -45q-41 0 -65.5 33 t-24.5 88z" />
<glyph unicode="&#xe2;" horiz-adv-x="1024" d="M29 297q0 -72 17 -131.5t54 -102.5t95.5 -67.5t140.5 -24.5q84 0 151.5 40t98.5 114h4q4 -35 8 -65.5t14 -59.5h357q-23 43 -29 102.5t-6 137.5v540q0 109 -32 177.5t-90 108.5t-139 55.5t-177 15.5q-63 0 -137 -13.5t-137.5 -53.5t-106.5 -113.5t-43 -192.5h319 q2 88 26.5 117.5t78.5 29.5q94 0 94 -102q0 -51 -24.5 -79t-84.5 -42l-145 -35q-88 -20 -147.5 -50t-94.5 -72t-50 -99t-15 -135zM189 1210h250l73 164l74 -164h250l-127 299h-393zM385 340q0 55 16.5 89t59.5 54q41 18 74.5 23.5t50.5 28.5h4v-134q0 -92 -27 -137t-88 -45 q-41 0 -65.5 33t-24.5 88z" />
<glyph unicode="&#xe3;" horiz-adv-x="1024" d="M29 297q0 -72 17 -131.5t54 -102.5t95.5 -67.5t140.5 -24.5q84 0 151.5 40t98.5 114h4q4 -35 8 -65.5t14 -59.5h357q-23 43 -29 102.5t-6 137.5v540q0 109 -32 177.5t-90 108.5t-139 55.5t-177 15.5q-63 0 -137 -13.5t-137.5 -53.5t-106.5 -113.5t-43 -192.5h319 q2 88 26.5 117.5t78.5 29.5q94 0 94 -102q0 -51 -24.5 -79t-84.5 -42l-145 -35q-88 -20 -147.5 -50t-94.5 -72t-50 -99t-15 -135zM174 1223h176q0 27 12.5 44t35.5 17t48 -9t56 -21.5t66.5 -21.5t76.5 -9q74 0 131.5 66.5t73.5 219.5h-176q-4 -35 -18.5 -48t-36.5 -13 q-23 0 -50.5 10t-60.5 21q-33 12 -66.5 21t-66.5 9q-88 0 -135 -72.5t-66 -213.5zM385 340q0 55 16.5 89t59.5 54q41 18 74.5 23.5t50.5 28.5h4v-134q0 -92 -27 -137t-88 -45q-41 0 -65.5 33t-24.5 88z" />
<glyph unicode="&#xe4;" horiz-adv-x="1024" d="M29 297q0 -72 17 -131.5t54 -102.5t95.5 -67.5t140.5 -24.5q84 0 151.5 40t98.5 114h4q4 -35 8 -65.5t14 -59.5h357q-23 43 -29 102.5t-6 137.5v540q0 109 -32 177.5t-90 108.5t-139 55.5t-177 15.5q-63 0 -137 -13.5t-137.5 -53.5t-106.5 -113.5t-43 -192.5h319 q2 88 26.5 117.5t78.5 29.5q94 0 94 -102q0 -51 -24.5 -79t-84.5 -42l-145 -35q-88 -20 -147.5 -50t-94.5 -72t-50 -99t-15 -135zM189 1204h274v287h-274v-287zM385 340q0 55 16.5 89t59.5 54q41 18 74.5 23.5t50.5 28.5h4v-134q0 -92 -27 -137t-88 -45q-41 0 -65.5 33 t-24.5 88zM561 1204h275v287h-275v-287z" />
<glyph unicode="&#xe5;" horiz-adv-x="1024" d="M29 297q0 -72 17 -131.5t54 -102.5t95.5 -67.5t140.5 -24.5q84 0 151.5 40t98.5 114h4q4 -35 8 -65.5t14 -59.5h357q-23 43 -29 102.5t-6 137.5v540q0 109 -32 177.5t-90 108.5t-139 55.5t-177 15.5q-63 0 -137 -13.5t-137.5 -53.5t-106.5 -113.5t-43 -192.5h319 q2 88 26.5 117.5t78.5 29.5q94 0 94 -102q0 -51 -24.5 -79t-84.5 -42l-145 -35q-88 -20 -147.5 -50t-94.5 -72t-50 -99t-15 -135zM285 1440q0 -47 18.5 -88t49 -72t71.5 -49.5t88 -18.5t88 18.5t72 49.5t49.5 72t18.5 88t-18.5 88t-49.5 71.5t-72 49t-88 18.5t-88 -18.5 t-71.5 -49t-49 -71.5t-18.5 -88zM385 340q0 55 16.5 89t59.5 54q41 18 74.5 23.5t50.5 28.5h4v-134q0 -92 -27 -137t-88 -45q-41 0 -65.5 33t-24.5 88zM420 1440q0 39 26.5 65.5t65.5 26.5t65.5 -26.5t26.5 -65.5t-26.5 -65.5t-65.5 -26.5t-65.5 26.5t-26.5 65.5z" />
<glyph unicode="&#xe6;" horiz-adv-x="1515" d="M41 297q0 -72 17.5 -131.5t54.5 -102.5t95 -67.5t140 -24.5q115 0 197 39t139 150q23 -47 52.5 -83t73.5 -59.5t107.5 -35t151.5 -11.5q98 0 175 28t130 81t77 131t26 178h-332q0 -113 -26.5 -152.5t-76.5 -39.5q-37 0 -67.5 30.5t-30.5 118.5v146h545v112 q0 152 -24.5 253t-75 163.5t-126 89.5t-180.5 27q-109 0 -175 -29t-113 -94q-53 61 -133 92t-154 31q-78 0 -153.5 -13.5t-136 -53.5t-97.5 -113.5t-37 -192.5h319q2 88 27 117.5t78 29.5q92 0 92 -102q0 -51 -23.5 -79t-82.5 -42l-146 -35q-88 -20 -147.5 -50t-94 -72 t-50 -99t-15.5 -135zM397 340q0 55 16.5 89t59.5 54q41 18 75 23.5t48 28.5h4v-134q0 -92 -26.5 -137t-86.5 -45q-41 0 -65.5 33t-24.5 88zM944 692v49q0 88 21.5 129t76.5 41q59 0 81 -41t22 -129v-49h-201z" />
<glyph unicode="&#xe7;" horiz-adv-x="985" d="M41 535q0 -166 29.5 -273.5t85 -170t133.5 -88.5t172 -32l-84 -155l51 -43q14 6 28.5 10t30.5 4q27 0 55.5 -12.5t28.5 -53.5q0 -29 -27.5 -49t-74.5 -20q-68 0 -139 33l-45 -115q47 -18 110.5 -29.5t122.5 -11.5q121 0 193.5 50t72.5 153q0 84 -57 123t-131 39 q-33 0 -59 -11l47 90q184 16 274 115q53 59 75.5 151.5t22.5 223.5h-331v-72q0 -104 -28 -143t-79 -39q-31 0 -52.5 15.5t-33.5 54t-17 105.5t-5 169t5 168.5t17 106.5t33.5 55.5t52.5 15.5q59 0 82 -47q12 -27 18.5 -69t6.5 -109h331q0 104 -19 189t-67.5 145.5 t-129.5 94.5t-203 34q-104 0 -194.5 -20.5t-157 -84t-105.5 -182.5t-39 -315z" />
<glyph unicode="&#xe8;" horiz-adv-x="985" d="M41 553q0 -158 23.5 -268.5t79 -180t145.5 -101.5t223 -32q229 0 329.5 107.5t104.5 310.5h-332q0 -113 -27.5 -152.5t-76.5 -39.5q-39 0 -69.5 30.5t-30.5 118.5v146h546v112q0 152 -27.5 253t-84 163.5t-139 89.5t-193.5 27q-125 0 -214 -32t-146.5 -101.5t-84 -180 t-26.5 -270.5zM229 1509l197 -299h237l-90 299h-344zM410 692v49q0 88 21.5 129t78.5 41q59 0 80.5 -41t21.5 -129v-49h-202z" />
<glyph unicode="&#xe9;" horiz-adv-x="985" d="M41 553q0 -158 23.5 -268.5t79 -180t145.5 -101.5t223 -32q229 0 329.5 107.5t104.5 310.5h-332q0 -113 -27.5 -152.5t-76.5 -39.5q-39 0 -69.5 30.5t-30.5 118.5v146h546v112q0 152 -27.5 253t-84 163.5t-139 89.5t-193.5 27q-125 0 -214 -32t-146.5 -101.5t-84 -180 t-26.5 -270.5zM344 1210h237l197 299h-344zM410 692v49q0 88 21.5 129t78.5 41q59 0 80.5 -41t21.5 -129v-49h-202z" />
<glyph unicode="&#xea;" horiz-adv-x="985" d="M41 553q0 -158 23.5 -268.5t79 -180t145.5 -101.5t223 -32q229 0 329.5 107.5t104.5 310.5h-332q0 -113 -27.5 -152.5t-76.5 -39.5q-39 0 -69.5 30.5t-30.5 118.5v146h546v112q0 152 -27.5 253t-84 163.5t-139 89.5t-193.5 27q-125 0 -214 -32t-146.5 -101.5t-84 -180 t-26.5 -270.5zM170 1210h250l73 164l74 -164h250l-127 299h-393zM410 692v49q0 88 21.5 129t78.5 41q59 0 80.5 -41t21.5 -129v-49h-202z" />
<glyph unicode="&#xeb;" horiz-adv-x="985" d="M41 553q0 -158 23.5 -268.5t79 -180t145.5 -101.5t223 -32q229 0 329.5 107.5t104.5 310.5h-332q0 -113 -27.5 -152.5t-76.5 -39.5q-39 0 -69.5 30.5t-30.5 118.5v146h546v112q0 152 -27.5 253t-84 163.5t-139 89.5t-193.5 27q-125 0 -214 -32t-146.5 -101.5t-84 -180 t-26.5 -270.5zM170 1204h274v287h-274v-287zM410 692v49q0 88 21.5 129t78.5 41q59 0 80.5 -41t21.5 -129v-49h-202zM542 1204h275v287h-275v-287z" />
<glyph unicode="&#xec;" horiz-adv-x="528" d="M-10 1509l197 -299h237l-90 299h-344zM80 0h369v1108h-369v-1108z" />
<glyph unicode="&#xed;" horiz-adv-x="528" d="M80 0h369v1108h-369v-1108zM105 1210h237l197 299h-344z" />
<glyph unicode="&#xee;" horiz-adv-x="528" d="M-69 1210h250l73 164l74 -164h250l-127 299h-393zM80 0h369v1108h-369v-1108z" />
<glyph unicode="&#xef;" horiz-adv-x="528" d="M-69 1204h274v287h-274v-287zM80 0h369v1108h-369v-1108zM303 1204h275v287h-275v-287z" />
<glyph unicode="&#xf0;" horiz-adv-x="1024" d="M41 528q0 -150 23.5 -255t79 -172.5t145.5 -98.5t223 -31q156 0 249 48.5t142 131t64.5 195.5t15.5 240q0 236 -84 433.5t-237 371.5l133 71l-90 142l-164 -88q-31 31 -67 61.5t-75 60.5l-223 -168q43 -37 103 -96l-146 -78l94 -141l172 92q53 -59 96.5 -113.5 t65.5 -95.5l-4 -4q-35 23 -78 37t-90 14q-68 0 -130 -25.5t-111.5 -89t-78 -171t-28.5 -271.5zM410 553q0 86 4 143.5t16 91t31.5 47t50.5 13.5t51.5 -13.5t31.5 -47t15 -91t4 -143.5q0 -104 -4 -171t-15 -105.5t-31.5 -53t-51.5 -14.5t-50.5 14.5t-31.5 53t-16 105.5 t-4 171z" />
<glyph unicode="&#xf1;" d="M74 0h368v731q0 70 20.5 100.5t69.5 30.5t70 -30.5t21 -100.5v-731h368v836q0 90 -22.5 147t-61.5 92t-91 48.5t-114 13.5q-96 0 -164.5 -41t-103.5 -123h-4v135h-356v-1108zM194 1223h176q0 27 12.5 44t35.5 17t48 -9t56 -21.5t66.5 -21.5t76.5 -9q74 0 131.5 66.5 t73.5 219.5h-176q-4 -35 -18.5 -48t-36.5 -13q-23 0 -50.5 10t-60.5 21q-33 12 -66.5 21t-66.5 9q-88 0 -135 -72.5t-66 -213.5z" />
<glyph unicode="&#xf2;" horiz-adv-x="1024" d="M41 555q0 -119 13.5 -225.5t60.5 -186.5t141 -126t256 -46q156 0 249 50.5t142 132.5t64.5 186t15.5 213q0 121 -13.5 226.5t-60.5 185t-141 126t-256 46.5q-156 0 -249 -50.5t-142 -132.5t-64.5 -186t-15.5 -213zM248 1509l197 -299h237l-90 299h-344zM410 553 q0 104 4 172t16 106.5t31.5 53t50.5 14.5t51.5 -14.5t31.5 -53t15 -106.5t4 -172t-4 -171t-15 -105.5t-31.5 -53t-51.5 -14.5t-50.5 14.5t-31.5 53t-16 105.5t-4 171z" />
<glyph unicode="&#xf3;" horiz-adv-x="1024" d="M41 555q0 -119 13.5 -225.5t60.5 -186.5t141 -126t256 -46q156 0 249 50.5t142 132.5t64.5 186t15.5 213q0 121 -13.5 226.5t-60.5 185t-141 126t-256 46.5q-156 0 -249 -50.5t-142 -132.5t-64.5 -186t-15.5 -213zM363 1210h237l197 299h-344zM410 553q0 104 4 172 t16 106.5t31.5 53t50.5 14.5t51.5 -14.5t31.5 -53t15 -106.5t4 -172t-4 -171t-15 -105.5t-31.5 -53t-51.5 -14.5t-50.5 14.5t-31.5 53t-16 105.5t-4 171z" />
<glyph unicode="&#xf4;" horiz-adv-x="1024" d="M41 555q0 -119 13.5 -225.5t60.5 -186.5t141 -126t256 -46q156 0 249 50.5t142 132.5t64.5 186t15.5 213q0 121 -13.5 226.5t-60.5 185t-141 126t-256 46.5q-156 0 -249 -50.5t-142 -132.5t-64.5 -186t-15.5 -213zM189 1210h250l73 164l74 -164h250l-127 299h-393z M410 553q0 104 4 172t16 106.5t31.5 53t50.5 14.5t51.5 -14.5t31.5 -53t15 -106.5t4 -172t-4 -171t-15 -105.5t-31.5 -53t-51.5 -14.5t-50.5 14.5t-31.5 53t-16 105.5t-4 171z" />
<glyph unicode="&#xf5;" horiz-adv-x="1024" d="M41 555q0 -119 13.5 -225.5t60.5 -186.5t141 -126t256 -46q156 0 249 50.5t142 132.5t64.5 186t15.5 213q0 121 -13.5 226.5t-60.5 185t-141 126t-256 46.5q-156 0 -249 -50.5t-142 -132.5t-64.5 -186t-15.5 -213zM174 1223h176q0 27 12.5 44t35.5 17t48 -9t56 -21.5 t66.5 -21.5t76.5 -9q74 0 131.5 66.5t73.5 219.5h-176q-4 -35 -18.5 -48t-36.5 -13q-23 0 -50.5 10t-60.5 21q-33 12 -66.5 21t-66.5 9q-88 0 -135 -72.5t-66 -213.5zM410 553q0 104 4 172t16 106.5t31.5 53t50.5 14.5t51.5 -14.5t31.5 -53t15 -106.5t4 -172t-4 -171 t-15 -105.5t-31.5 -53t-51.5 -14.5t-50.5 14.5t-31.5 53t-16 105.5t-4 171z" />
<glyph unicode="&#xf6;" horiz-adv-x="1024" d="M41 555q0 -119 13.5 -225.5t60.5 -186.5t141 -126t256 -46q156 0 249 50.5t142 132.5t64.5 186t15.5 213q0 121 -13.5 226.5t-60.5 185t-141 126t-256 46.5q-156 0 -249 -50.5t-142 -132.5t-64.5 -186t-15.5 -213zM189 1204h274v287h-274v-287zM410 553q0 104 4 172 t16 106.5t31.5 53t50.5 14.5t51.5 -14.5t31.5 -53t15 -106.5t4 -172t-4 -171t-15 -105.5t-31.5 -53t-51.5 -14.5t-50.5 14.5t-31.5 53t-16 105.5t-4 171zM561 1204h275v287h-275v-287z" />
<glyph unicode="&#xf7;" horiz-adv-x="1228" d="M96 375h1037v287h-1037v-287zM412 84q0 -86 58 -144.5t144 -58.5t144.5 58.5t58.5 144.5t-58.5 144.5t-144.5 58.5t-144 -58.5t-58 -144.5zM412 952q0 -86 58 -144t144 -58t144.5 58t58.5 144t-58.5 144.5t-144.5 58.5t-144 -58.5t-58 -144.5z" />
<glyph unicode="&#xf8;" horiz-adv-x="1024" d="M41 555q0 -72 4 -138.5t16.5 -126t35 -110.5t59.5 -90l-84 -143l110 -74l86 141q86 -43 244 -43q156 0 249 50.5t142 132.5t64.5 186t15.5 213q0 72 -4 138.5t-16.5 126t-35 110.5t-61.5 90l86 143l-114 74l-82 -139q-98 41 -244 41q-156 0 -249 -50.5t-142 -132.5 t-64.5 -186t-15.5 -213zM410 532v21q0 104 4 172t16 106.5t31.5 53t50.5 14.5q33 0 52.5 -15.5t31.5 -56.5l-184 -311q-2 6 -2 16zM430 285l180 309h4v-41q0 -104 -4 -171t-15 -105.5t-31.5 -53t-51.5 -14.5q-33 0 -52.5 16.5t-29.5 59.5z" />
<glyph unicode="&#xf9;" d="M74 272q0 -88 22.5 -146t61.5 -93t91 -48.5t113 -13.5q96 0 165 41t104 123h4v-135h356v1108h-368v-731q0 -70 -20.5 -100.5t-70.5 -30.5q-49 0 -69.5 30.5t-20.5 100.5v731h-368v-836zM268 1509l197 -299h237l-90 299h-344z" />
<glyph unicode="&#xfa;" d="M74 272q0 -88 22.5 -146t61.5 -93t91 -48.5t113 -13.5q96 0 165 41t104 123h4v-135h356v1108h-368v-731q0 -70 -20.5 -100.5t-70.5 -30.5q-49 0 -69.5 30.5t-20.5 100.5v731h-368v-836zM383 1210h237l197 299h-344z" />
<glyph unicode="&#xfb;" d="M74 272q0 -88 22.5 -146t61.5 -93t91 -48.5t113 -13.5q96 0 165 41t104 123h4v-135h356v1108h-368v-731q0 -70 -20.5 -100.5t-70.5 -30.5q-49 0 -69.5 30.5t-20.5 100.5v731h-368v-836zM209 1210h250l73 164l74 -164h250l-127 299h-393z" />
<glyph unicode="&#xfc;" d="M74 272q0 -88 22.5 -146t61.5 -93t91 -48.5t113 -13.5q96 0 165 41t104 123h4v-135h356v1108h-368v-731q0 -70 -20.5 -100.5t-70.5 -30.5q-49 0 -69.5 30.5t-20.5 100.5v731h-368v-836zM209 1204h274v287h-274v-287zM581 1204h275v287h-275v-287z" />
<glyph unicode="&#xfd;" horiz-adv-x="948" d="M-2 1108l293 -1045q6 -23 11 -46t5 -35q0 -8 -6 -22.5t-20.5 -28t-38 -23.5t-58.5 -10q-20 0 -40.5 2t-41.5 6v-258q47 -4 97.5 -6t109.5 -2q74 0 131.5 14t101.5 51t75.5 99.5t56.5 158.5l297 1145h-369l-106 -748h-4l-113 748h-381zM326 1210h237l197 299h-344z" />
<glyph unicode="&#xfe;" d="M80 -360h369v485h4q29 -86 91 -120t140 -34q80 0 143.5 28t106.5 92.5t66.5 172t23.5 266.5q0 154 -17.5 267.5t-56.5 189.5t-102.5 113t-155.5 37q-88 0 -147 -43q-57 -43 -92 -138h-4v506h-369v-1822zM449 555q0 90 4 148.5t15 94.5t31.5 50t51.5 14q33 0 53.5 -14 t31.5 -50t15 -94.5t4 -148.5t-4 -149.5t-15 -95.5t-31.5 -50t-53.5 -14q-31 0 -51.5 14t-31.5 50t-15 95.5t-4 149.5z" />
<glyph unicode="&#xff;" horiz-adv-x="948" d="M-2 1108l293 -1045q6 -23 11 -46t5 -35q0 -8 -6 -22.5t-20.5 -28t-38 -23.5t-58.5 -10q-20 0 -40.5 2t-41.5 6v-258q47 -4 97.5 -6t109.5 -2q74 0 131.5 14t101.5 51t75.5 99.5t56.5 158.5l297 1145h-369l-106 -748h-4l-113 748h-381zM152 1204h274v287h-274v-287z M524 1204h275v287h-275v-287z" />
<glyph unicode="&#x152;" horiz-adv-x="1554" d="M47 731q0 -209 18.5 -353.5t65.5 -235.5t132 -131t216 -40q82 0 148.5 23.5t103.5 68.5h4v-63h787v311h-475v291h426v299h-426v250h456v311h-768v-63q-53 51 -119.5 71.5t-146.5 20.5q-113 0 -192.5 -38t-131 -127t-75 -234.5t-23.5 -360.5zM428 731q0 147 4 244.5 t17.5 155t40 80t71.5 22.5q43 0 68.5 -22.5t39 -80t17.5 -154.5t4 -245q0 -147 -4 -244.5t-17.5 -155t-39 -80t-68.5 -22.5q-45 0 -71.5 22.5t-40 80t-17.5 155t-4 244.5z" />
<glyph unicode="&#x153;" horiz-adv-x="1515" d="M27 553q0 -160 25.5 -271.5t78.5 -180t136 -99.5t198 -31q98 0 175 31t124 107q33 -66 113.5 -102t191.5 -36q98 0 175 28t130 81t77 131t26 178h-332q0 -113 -26.5 -152.5t-76.5 -39.5q-37 0 -67.5 30.5t-30.5 118.5v146h545v112q0 152 -24.5 253t-75 163.5t-126 89.5 t-180.5 27q-111 0 -184.5 -37t-118.5 -88q-14 25 -43.5 47t-67.5 39.5t-83 28t-92 10.5q-127 0 -216.5 -33t-144.5 -102.5t-80.5 -180t-25.5 -268.5zM395 553q0 104 4 172t16.5 106.5t32 53t50.5 14.5t51 -14.5t31.5 -53t15.5 -106.5t4 -172t-4 -171t-15.5 -105.5t-32 -53 t-50.5 -14.5q-31 0 -50.5 14.5t-32 53t-16.5 105.5t-4 171zM944 692v49q0 88 21.5 129t76.5 41q59 0 81 -41t22 -129v-49h-201z" />
<glyph unicode="&#x178;" d="M-31 1462l373 -887v-575h381v575l373 887h-418l-143 -510h-5l-143 510h-418zM209 1558h274v287h-274v-287zM581 1558h275v287h-275v-287z" />
<glyph unicode="&#x2c6;" horiz-adv-x="532" d="M-57 1210h250l73 164l74 -164h250l-127 299h-393z" />
<glyph unicode="&#x2dc;" horiz-adv-x="532" d="M-72 1223h176q0 27 12.5 44t35.5 17t48 -9t56 -21.5t66.5 -21.5t76.5 -9q74 0 131.5 66.5t73.5 219.5h-176q-4 -35 -18.5 -48t-36.5 -13q-23 0 -50.5 10t-60.5 21q-33 12 -66.5 21t-66.5 9q-88 0 -135 -72.5t-66 -213.5z" />
<glyph unicode="&#x2000;" horiz-adv-x="995" />
<glyph unicode="&#x2001;" horiz-adv-x="1991" />
<glyph unicode="&#x2002;" horiz-adv-x="995" />
<glyph unicode="&#x2003;" horiz-adv-x="1991" />
<glyph unicode="&#x2004;" horiz-adv-x="663" />
<glyph unicode="&#x2005;" horiz-adv-x="497" />
<glyph unicode="&#x2006;" horiz-adv-x="331" />
<glyph unicode="&#x2007;" horiz-adv-x="331" />
<glyph unicode="&#x2008;" horiz-adv-x="248" />
<glyph unicode="&#x2009;" horiz-adv-x="398" />
<glyph unicode="&#x200a;" horiz-adv-x="110" />
<glyph unicode="&#x2010;" horiz-adv-x="753" d="M57 436h639v312h-639v-312z" />
<glyph unicode="&#x2011;" horiz-adv-x="753" d="M57 436h639v312h-639v-312z" />
<glyph unicode="&#x2012;" horiz-adv-x="753" d="M57 436h639v312h-639v-312z" />
<glyph unicode="&#x2013;" horiz-adv-x="1024" d="M0 442h1024v299h-1024v-299z" />
<glyph unicode="&#x2014;" horiz-adv-x="2048" d="M0 442h2048v299h-2048v-299z" />
<glyph unicode="&#x2018;" horiz-adv-x="532" d="M94 696h344v394h-131v24q0 82 29 123t102 49v176q-182 -4 -263 -101t-81 -296v-369z" />
<glyph unicode="&#x2019;" horiz-adv-x="532" d="M94 696q182 4 263 101.5t81 296.5v368h-344v-393h131v-25q0 -82 -28.5 -122.5t-102.5 -49.5v-176z" />
<glyph unicode="&#x201a;" horiz-adv-x="532" d="M94 12h131v-24q0 -82 -28.5 -123t-102.5 -49v-176q182 4 263 101t81 296v369h-344v-394z" />
<glyph unicode="&#x201c;" horiz-adv-x="985" d="M86 696h344v394h-131v24q0 82 28.5 123t102.5 49v176q-182 -4 -263 -101t-81 -296v-369zM555 696h344v394h-131v24q0 82 28.5 123t102.5 49v176q-182 -4 -263 -101t-81 -296v-369z" />
<glyph unicode="&#x201d;" horiz-adv-x="985" d="M86 696q182 4 263 101.5t81 296.5v368h-344v-393h131v-25q0 -82 -28.5 -122.5t-102.5 -49.5v-176zM555 696q182 4 263 101.5t81 296.5v368h-344v-393h131v-25q0 -82 -28.5 -122.5t-102.5 -49.5v-176z" />
<glyph unicode="&#x201e;" horiz-adv-x="985" d="M86 12h131v-24q0 -82 -28.5 -123t-102.5 -49v-176q182 4 263 101t81 296v369h-344v-394zM555 12h131v-24q0 -82 -28.5 -123t-102.5 -49v-176q182 4 263 101t81 296v369h-344v-394z" />
<glyph unicode="&#x2022;" horiz-adv-x="1024" d="M147 731q0 -76 29 -142.5t78 -115.5t115.5 -77.5t142.5 -28.5t142.5 28.5t115.5 77.5t78 115.5t29 142.5t-29 142.5t-78 115.5t-115.5 78t-142.5 29t-142.5 -29t-115.5 -78t-78 -115.5t-29 -142.5z" />
<glyph unicode="&#x2026;" horiz-adv-x="2048" d="M170 0h344v406h-344v-406zM852 0h344v406h-344v-406zM1534 0h344v406h-344v-406z" />
<glyph unicode="&#x202f;" horiz-adv-x="398" />
<glyph unicode="&#x2039;" horiz-adv-x="491" d="M86 367l320 -213v323l-173 115l173 115v323l-320 -213v-450z" />
<glyph unicode="&#x203a;" horiz-adv-x="491" d="M86 154l320 213v450l-320 213v-323l172 -115l-172 -115v-323z" />
<glyph unicode="&#x205f;" horiz-adv-x="497" />
<glyph unicode="&#x2122;" horiz-adv-x="2048" d="M20 1249h213v-631h287v631h213v213h-713v-213zM885 618h262v533h4l184 -533h176l185 533h4v-533h262v844h-356l-183 -448l-182 448h-356v-844z" />
<glyph unicode="&#x25fc;" horiz-adv-x="1105" d="M0 0v1106h1106v-1106h-1106z" />
<glyph unicode="&#xfb01;" horiz-adv-x="1138" d="M0 860h127v-860h369v860h149v248h-149v68q0 41 26.5 59t61.5 18t61 -6v232q-43 6 -89 9t-87 3q-96 0 -161.5 -16.5t-105.5 -52.5t-57.5 -93t-17.5 -141v-80h-127v-248zM690 0h369v1108h-369v-1108zM690 1188h369v274h-369v-274z" />
<glyph unicode="&#xfb02;" horiz-adv-x="1138" d="M0 860h127v-860h369v860h149v248h-149v68q0 41 26.5 59t61.5 18t61 -6v232q-43 6 -89 9t-87 3q-96 0 -161.5 -16.5t-105.5 -52.5t-57.5 -93t-17.5 -141v-80h-127v-248zM690 0h369v1462h-369v-1462z" />
</font>
</defs>
</svg>
